<svg xmlns="http://www.w3.org/2000/svg" viewBox="0 0 760 300" width="760" height="300" font-family="system-ui, -apple-system, 'Segoe UI', Roboto, Helvetica, Arial, sans-serif"><rect x="0.5" y="0.5" width="759" height="299" rx="10" fill="#ffffff" stroke="#d2d6dc"/><text x="28" y="40" font-size="16" fill="#1f2933" text-anchor="start" font-weight="600">Is the model's decision worth as much as the benchmark's?</text><text x="28" y="60" font-size="12" fill="#7b8794" text-anchor="start" font-weight="400">Arm win-share among natural game closes  ·  0.5 = parity with the heuristic</text><line x1="200.0" y1="90" x2="200.0" y2="255" stroke="#e4e7eb"/><text x="200.0" y="275" font-size="11" fill="#7b8794" text-anchor="middle" font-weight="400">0.2</text><line x1="330.0" y1="90" x2="330.0" y2="255" stroke="#e4e7eb"/><text x="330.0" y="275" font-size="11" fill="#7b8794" text-anchor="middle" font-weight="400">0.3</text><line x1="460.0" y1="90" x2="460.0" y2="255" stroke="#e4e7eb"/><text x="460.00000000000006" y="275" font-size="11" fill="#7b8794" text-anchor="middle" font-weight="400">0.4</text><line x1="590.0" y1="90" x2="590.0" y2="255" stroke="#e4e7eb"/><text x="590.0" y="275" font-size="11" fill="#7b8794" text-anchor="middle" font-weight="400">0.5</text><line x1="720.0" y1="90" x2="720.0" y2="255" stroke="#e4e7eb"/><text x="720.0" y="275" font-size="11" fill="#7b8794" text-anchor="middle" font-weight="400">0.6</text><line x1="590.0" y1="86" x2="590.0" y2="255" stroke="#dd8a2b" stroke-width="2" stroke-dasharray="5 4"/><text x="596.0" y="104" font-size="11" fill="#dd8a2b" text-anchor="start" font-weight="600">0.5 — benchmark</text><text x="28" y="146" font-size="14" fill="#1f2933" text-anchor="start" font-weight="600">Combat</text><text x="28" y="164" font-size="11" fill="#7b8794" text-anchor="start" font-weight="400">which creatures attack</text><line x1="219.5" y1="150" x2="456.1" y2="150" stroke="#9aa5b1" stroke-width="2"/><circle cx="327.4" cy="150" r="6" fill="#9aa5b1"/><text x="327.4" y="138" font-size="11" fill="#7b8794" text-anchor="middle" font-weight="400">0.30</text><line x1="435.3" y1="150" x2="713.5" y2="150" stroke="#2b6cb0" stroke-width="2"/><circle cx="573.1" cy="150" r="6" fill="#2b6cb0"/><text x="573.1" y="138" font-size="12" fill="#2b6cb0" text-anchor="middle" font-weight="700">0.49</text><text x="28" y="216" font-size="14" fill="#1f2933" text-anchor="start" font-weight="600">Casting</text><text x="28" y="234" font-size="11" fill="#7b8794" text-anchor="start" font-weight="400">which spell to play</text><line x1="335.2" y1="220" x2="584.8" y2="220" stroke="#9aa5b1" stroke-width="2"/><circle cx="454.8" cy="220" r="6" fill="#9aa5b1"/><text x="454.8" y="208" font-size="11" fill="#7b8794" text-anchor="middle" font-weight="400">0.40</text><circle cx="562.7" cy="220" r="6" fill="#ffffff" stroke="#2b6cb0" stroke-width="2.5"/><text x="562.7" y="208" font-size="12" fill="#2b6cb0" text-anchor="middle" font-weight="700">0.48*</text><circle cx="210" cy="288" r="5" fill="#9aa5b1"/><text x="222" y="292" font-size="11" fill="#7b8794" text-anchor="start" font-weight="400">random floor</text><circle cx="330" cy="288" r="5" fill="#2b6cb0"/><text x="342" y="292" font-size="11" fill="#7b8794" text-anchor="start" font-weight="400">Qwen3-14B</text><circle cx="440" cy="288" r="5" fill="#ffffff" stroke="#2b6cb0" stroke-width="2"/><text x="452" y="292" font-size="11" fill="#7b8794" text-anchor="start" font-weight="400">* 48-game checkpoint, under-powered</text></svg>
