<svg xmlns="http://www.w3.org/2000/svg" viewBox="0 0 760 372" width="760" height="372" font-family="system-ui, -apple-system, 'Segoe UI', Roboto, Helvetica, Arial, sans-serif"><rect x="0.5" y="0.5" width="759" height="371" rx="10" fill="#ffffff" stroke="#d2d6dc"/><text x="28" y="40" font-size="16" fill="#1f2933" text-anchor="start" font-weight="600">Round 0: did fine-tuning the 4B student move the needle?</text><text x="28" y="60" font-size="12" fill="#7b8794" text-anchor="start" font-weight="400">base qwen3:4b vs student after QLoRA  ·  higher is better  ·  60 held-out decisions, k=5 shuffles each</text><line x1="70" y1="280" x2="720" y2="280" stroke="#e4e7eb"/><text x="60" y="284" font-size="11" fill="#7b8794" text-anchor="end" font-weight="400">0%</text><line x1="70" y1="240" x2="720" y2="240" stroke="#e4e7eb"/><text x="60" y="244" font-size="11" fill="#7b8794" text-anchor="end" font-weight="400">20%</text><line x1="70" y1="200" x2="720" y2="200" stroke="#e4e7eb"/><text x="60" y="204" font-size="11" fill="#7b8794" text-anchor="end" font-weight="400">40%</text><line x1="70" y1="160" x2="720" y2="160" stroke="#e4e7eb"/><text x="60" y="164" font-size="11" fill="#7b8794" text-anchor="end" font-weight="400">60%</text><line x1="70" y1="120" x2="720" y2="120" stroke="#e4e7eb"/><text x="60" y="124" font-size="11" fill="#7b8794" text-anchor="end" font-weight="400">80%</text><line x1="70" y1="80" x2="720" y2="80" stroke="#e4e7eb"/><text x="60" y="84" font-size="11" fill="#7b8794" text-anchor="end" font-weight="400">100%</text><rect x="164" y="174.8" width="78" height="105.2" fill="#9aa5b1" rx="3"/><text x="203" y="166.8" font-size="12" fill="#1f2933" text-anchor="middle" font-weight="600">0.526</text><text x="203" y="296" font-size="11" fill="#7b8794" text-anchor="middle" font-weight="400">base 4B</text><rect x="258" y="119.8" width="78" height="160.2" fill="#2b6cb0" rx="3"/><text x="297" y="111.8" font-size="12" fill="#2b6cb0" text-anchor="middle" font-weight="700">0.801</text><text x="297" y="296" font-size="11" fill="#7b8794" text-anchor="middle" font-weight="400">student r0</text><line x1="158" y1="109.8" x2="342" y2="109.8" stroke="#dd8a2b" stroke-width="2" stroke-dasharray="5 4"/><text x="346" y="113.8" font-size="10" fill="#dd8a2b" text-anchor="start" font-weight="400">round-1 gate 0.851</text><text x="250" y="318" font-size="12" fill="#1f2933" text-anchor="middle" font-weight="600">Order-consistency</text><text x="250" y="334" font-size="10.5" fill="#7b8794" text-anchor="middle" font-weight="400">the honest signal</text><rect x="454" y="213.4" width="78" height="66.6" fill="#9aa5b1" rx="3"/><text x="493" y="205.4" font-size="12" fill="#1f2933" text-anchor="middle" font-weight="600">0.333</text><text x="493" y="296" font-size="11" fill="#7b8794" text-anchor="middle" font-weight="400">base 4B</text><rect x="548" y="173.4" width="78" height="106.6" fill="#2b6cb0" rx="3"/><text x="587" y="165.4" font-size="12" fill="#2b6cb0" text-anchor="middle" font-weight="700">0.533</text><text x="587" y="296" font-size="11" fill="#7b8794" text-anchor="middle" font-weight="400">student r0</text><text x="540" y="318" font-size="12" fill="#1f2933" text-anchor="middle" font-weight="600">Agreement with teacher</text><text x="540" y="334" font-size="10.5" fill="#c0463f" text-anchor="middle" font-weight="400">circular — read with care</text><line x1="28" y1="348" x2="732" y2="348" stroke="#e4e7eb"/><text x="28" y="365" font-size="11" fill="#7b8794" text-anchor="start" font-weight="400">Order-consistency = same pick when the menu is shuffled; no training target teaches it. Teacher-agreement was trained for, then measured — treat as descriptive.</text></svg>
